<svg width="16" height="16" viewBox="0 0 16 16" fill="none" xmlns="http://www.w3.org/2000/svg">
<g clip-path="url(#clip0_1_3980)">
<path d="M8.09289 16C3.73229 16 0.185547 12.4094 0.185547 7.99854H3.00409C3.00409 10.838 5.28862 13.146 8.09289 13.146C10.8972 13.146 13.1817 10.838 13.1817 7.99854H16.0002C16.0002 12.4094 12.4535 16 8.09289 16Z" fill="#0AF522"/>
<path d="M9.50409 7.99857H6.68555C6.68555 3.58766 10.2323 0 14.5929 0V2.85106C11.7858 2.85106 9.50409 5.15906 9.50409 7.99857Z" fill="#0AF522"/>
<path d="M1.59346 6.38654C2.47351 6.38654 3.18692 5.66489 3.18692 4.77469C3.18692 3.88449 2.47351 3.16284 1.59346 3.16284C0.713417 3.16284 0 3.88449 0 4.77469C0 5.66489 0.713417 6.38654 1.59346 6.38654Z" fill="#FFDD37"/>
</g>
<defs>
<clipPath id="clip0_1_3980">
<rect width="16" height="16" fill="white"/>
</clipPath>
</defs>
</svg>
