<svg viewBox="0 0 24 24" fill="none" xmlns="http://www.w3.org/2000/svg" class="m-icon m-icon-loadable"><path d="M22.883 10.467c-.289-1.225-.856-2.29-1.943-3.006-1.544-1.016-3.168-1.109-4.84-.296-.062.03-.142.068-.202.055-.306-.067-.607-.15-.922-.228.01-.05.013-.089.024-.127q.126-.444.25-.888c.144-.517.523-.744 1.057-.634.806.167 1.6-.156 1.985-.854.15-.274.22-.594.31-.898a.447.447 0 0 0-.317-.568c-.276-.08-.545.054-.627.315-.043.137-.09.274-.117.414-.108.56-.625.786-1.127.66a1.787 1.787 0 0 0-2.13 1.23l-.313 1.093c-.32-.08-.62-.15-.916-.232a.27.27 0 0 1-.136-.113 4.6 4.6 0 0 0-4.834-2.005c-1.54.33-2.695 1.213-3.498 2.512-.595.963-1.124 1.967-1.661 2.964a112 112 0 0 0-1.719 3.296c-.436.878-.16 1.97.608 2.595 1.006.82 2.552.843 3.64.064 1.09-.782 2.186-1.557 3.278-2.337a.28.28 0 0 1 .26-.049c.505.134 1.013.258 1.52.387q2.6.659 5.199 1.324c.069.018.154.075.181.136.537 1.178 1.059 2.363 1.601 3.54.503 1.089 1.372 1.7 2.597 1.777 1.21.077 2.276-.679 2.52-1.793.084-.383.09-.784.11-1.178.086-1.66.17-3.32.244-4.98.032-.726.088-1.455-.082-2.176m-12.327-.762c-.17.194-.394.244-.642.185-.325-.077-.648-.163-.993-.25-.093.325-.177.631-.268.935-.086.29-.333.454-.64.436a.6.6 0 0 1-.572-.503.8.8 0 0 1 .03-.302c.073-.283.157-.563.236-.845.003-.009-.001-.02-.004-.05q-.466-.12-.945-.24c-.224-.056-.387-.18-.463-.396a.5.5 0 0 1 .128-.553.68.68 0 0 1 .677-.186c.26.06.516.131.775.197.055.014.11.026.18.042.088-.31.17-.616.26-.92a.63.63 0 0 1 .61-.447c.275-.002.526.164.59.42a.75.75 0 0 1-.005.345c-.07.294-.16.584-.24.875-.003.01 0 .02.002.048l.931.237c.205.052.363.16.447.353a.55.55 0 0 1-.094.619m8.03-.642c.46.003.817.345.814.78-.003.437-.36.774-.822.774-.458 0-.824-.342-.825-.771-.002-.434.372-.785.834-.783m-2.474 1.606c.007-.42.385-.761.833-.75.463.013.826.36.807.792-.02.437-.318.784-.817.772-.471-.009-.83-.364-.823-.814m1.778 2.405c-.45 0-.824-.35-.83-.774-.004-.44.368-.792.842-.794.406-.003.796.396.797.816.002.41-.366.752-.81.752m1.656-.897c-.453-.002-.821-.354-.82-.781.003-.41.375-.806.772-.774.46.036.837.325.856.82.015.39-.378.738-.808.735" fill="#98B6B6"></path></svg>