<svg data-cpl="true" viewBox="0 0 16 16" fill="currentColor" class="icon_icon__RdICC" xmlns="http://www.w3.org/2000/svg" width="14px" height="14px"><path fill-rule="evenodd" clip-rule="evenodd" d="M3.404 1.904A6.5 6.5 0 0 1 14.5 6.5v.01c0 .194 0 .396-.029.627l-.004.03-.023.095c-.267 2.493-1.844 4.601-3.293 6.056a18.723 18.723 0 0 1-2.634 2.19 11.015 11.015 0 0 1-.234.154l-.013.01-.004.002h-.002L8 15.25l-.261.426h-.002l-.004-.003-.014-.009a13.842 13.842 0 0 1-.233-.152 18.388 18.388 0 0 1-2.64-2.178c-1.46-1.46-3.05-3.587-3.318-6.132l-.003-.026v-.068c-.025-.2-.025-.414-.025-.591V6.5a6.5 6.5 0 0 1 1.904-4.596ZM8 15.25l-.261.427.263.16.262-.162L8 15.25Zm-.002-.598a17.736 17.736 0 0 0 2.444-2.04c1.4-1.405 2.79-3.322 3.01-5.488l.004-.035.026-.105c.018-.153.018-.293.018-.484a5.5 5.5 0 0 0-11 0c0 .21.001.371.02.504l.005.035v.084c.24 2.195 1.632 4.109 3.029 5.505a17.389 17.389 0 0 0 2.444 2.024Z"></path><path fill-rule="evenodd" clip-rule="evenodd" d="M8 4a2.5 2.5 0 1 0 0 5 2.5 2.5 0 0 0 0-5ZM4.5 6.5a3.5 3.5 0 1 1 7 0 3.5 3.5 0 0 1-7 0Z"></path></svg>