<svg data-cpl="true" viewBox="0 0 16 16" fill="#605e56" class="icon_icon__RdICC" xmlns="http://www.w3.org/2000/svg" width="14px" height="14px"><path fill-rule="evenodd" clip-rule="evenodd" d="M7.94.94A1.5 1.5 0 0 1 10.5 2a20.774 20.774 0 0 1-.384 4H14.5A1.5 1.5 0 0 1 16 7.5v.066l-1.845 6.9-.094.095A1.5 1.5 0 0 1 13 15H9c-.32 0-.685-.078-1.038-.174-.357-.097-.743-.226-1.112-.349l-.008-.003c-.378-.126-.74-.246-1.067-.335C5.44 14.047 5.18 14 5 14v.941l-5 .625V6h5v.788c.913-.4 1.524-1.357 1.926-2.418A10.169 10.169 0 0 0 7.5 1.973 1.5 1.5 0 0 1 7.94.939ZM8 2l.498.045v.006l-.002.013a4.507 4.507 0 0 1-.026.217 11.166 11.166 0 0 1-.609 2.443C7.396 5.951 6.541 7.404 5 7.851V13c.32 0 .685.078 1.038.174.357.097.743.226 1.112.349l.008.003c.378.126.74.246 1.067.335.335.092.594.139.775.139h4a.5.5 0 0 0 .265-.076l1.732-6.479A.5.5 0 0 0 14.5 7H8.874l.138-.61c.326-1.44.49-2.913.488-4.39a.5.5 0 0 0-1 0v.023l-.002.022L8 2ZM4 7H1v7.434l3-.375V7Zm-1.5 5.75a.25.25 0 1 0 0-.5.25.25 0 0 0 0 .5Zm-.75-.25a.75.75 0 1 1 1.5 0 .75.75 0 0 1-1.5 0Z"></path></svg>