<svg xmlns="http://www.w3.org/2000/svg" width="141" height="26" viewBox="0 0 141 26" fill="none"><script xmlns="" id="pphgdbgldlmicfdkhondlafkiomnelnk"/>
    <path d="M27.25 15.2813H31.2336C31.3625 15.6098 31.5642 15.9104 31.8387 16.1832C32.4214 16.7678 33.2282 17.0574 34.2535 17.0574C35.8111 17.0574 36.5899 16.6008 36.5899 15.6933C36.5899 15.5485 36.5507 15.4149 36.4778 15.298C36.405 15.181 36.2761 15.0697 36.0912 14.9695C35.9063 14.8693 35.7327 14.7857 35.5702 14.7078C35.4077 14.6354 35.1612 14.5575 34.8418 14.4739C34.5225 14.3904 34.2647 14.3348 34.0742 14.2958C33.8837 14.2624 33.5812 14.1956 33.1666 14.1065C32.752 14.0174 32.455 13.9506 32.2757 13.9172C29.3847 13.2992 27.9335 11.8905 27.9335 9.68572C27.9335 8.52207 28.4602 7.52545 29.5135 6.69586C30.5669 5.86627 32.0068 5.45426 33.8389 5.45426C36.2929 5.45426 38.1307 6.21147 39.3577 7.72032C39.89 8.37731 40.2429 9.12338 40.4278 9.95854H36.5843C36.4554 9.68572 36.2929 9.45744 36.0912 9.27371C35.5254 8.81715 34.7746 8.58888 33.8389 8.58888C33.1778 8.58888 32.6959 8.69466 32.3822 8.90067C32.0684 9.11224 31.9171 9.36836 31.9171 9.68015C31.9171 9.7915 31.9396 9.89172 31.9844 9.99194C32.0292 10.0922 32.1076 10.1812 32.2197 10.2648C32.3318 10.3483 32.4382 10.4207 32.5503 10.4819C32.6623 10.5431 32.8136 10.61 33.0153 10.6712C33.217 10.738 33.3963 10.7937 33.5532 10.8494C33.71 10.905 33.9117 10.9607 34.1695 11.0108C34.4272 11.0665 34.6457 11.1111 34.8306 11.15C35.0155 11.189 35.2508 11.2391 35.5422 11.3004C35.8335 11.3672 36.0744 11.4117 36.2537 11.4507C39.128 12.0854 40.5679 13.4996 40.5679 15.6821C40.5679 16.9015 40.002 17.9593 38.8646 18.8502C37.7273 19.741 36.1921 20.1864 34.2535 20.1864C31.6538 20.1864 29.732 19.368 28.4882 17.7311C27.9223 16.985 27.5077 16.1665 27.25 15.2757V15.2813Z" fill="white"/>
    <path d="M43.3849 18.1606C42.1467 16.8076 41.5304 15.0259 41.5304 12.8267C41.5304 10.6274 42.1467 8.84577 43.3849 7.49282C44.6231 6.13987 46.1527 5.46061 47.9848 5.46061C49.2118 5.46061 50.3212 5.82251 51.3073 6.55188C51.7275 6.89708 52.0861 7.25898 52.3774 7.64315H52.5175V5.86705H56.361V19.7863H52.5175V18.0102H52.3774C52.0861 18.3944 51.7275 18.7563 51.3073 19.1015C50.3212 19.8309 49.2118 20.1928 47.9848 20.1928C46.1527 20.1928 44.6231 19.5135 43.3849 18.1606ZM46.472 9.82012C45.8333 10.5495 45.5084 11.5461 45.5084 12.8211C45.5084 14.0961 45.8277 15.0983 46.472 15.8221C47.1108 16.5515 47.9344 16.9134 48.9429 16.9134C50.0018 16.9134 50.8646 16.5515 51.5258 15.8333C52.1869 15.115 52.5119 14.1073 52.5119 12.8156C52.5119 11.5238 52.1813 10.5217 51.5258 9.79785C50.8646 9.07962 50.0074 8.71772 48.9429 8.71772C47.8783 8.71772 47.1108 9.07962 46.472 9.80899V9.82012Z" fill="white"/>
    <path d="M57.6008 5.86687H61.5844L64.1953 16.5123H65.7081L68.319 5.86687H72.3026L68.5936 19.7862H61.3155L57.6064 5.86687H57.6008Z" fill="white"/>
    <path d="M74.1445 18.1606C72.9063 16.8076 72.29 15.0259 72.29 12.8267C72.29 10.6274 72.9063 8.84577 74.1445 7.49282C75.3827 6.13987 76.9123 5.46061 78.7444 5.46061C79.9715 5.46061 81.0808 5.82251 82.0669 6.55188C82.4871 6.89708 82.8457 7.25898 83.137 7.64315H83.2771V5.86705H87.1206V19.7863H83.2771V18.0102H83.137C82.8457 18.3944 82.4871 18.7563 82.0669 19.1015C81.0808 19.8309 79.9715 20.1928 78.7444 20.1928C76.9123 20.1928 75.3827 19.5135 74.1445 18.1606ZM77.2317 9.82012C76.593 10.5495 76.268 11.5461 76.268 12.8211C76.268 14.0961 76.5873 15.0983 77.2317 15.8221C77.8704 16.5515 78.694 16.9134 79.7025 16.9134C80.7614 16.9134 81.6243 16.5515 82.2854 15.8333C82.9465 15.115 83.2715 14.1073 83.2715 12.8156C83.2715 11.5238 82.9409 10.5217 82.2854 9.79785C81.6243 9.07962 80.767 8.71772 79.7025 8.71772C78.638 8.71772 77.8704 9.07962 77.2317 9.80899V9.82012Z" fill="white"/>
    <path d="M88.6347 15.2813H92.6183C92.7472 15.6098 92.9489 15.9104 93.2234 16.1832C93.8061 16.7678 94.6129 17.0574 95.6382 17.0574C97.1958 17.0574 97.9746 16.6008 97.9746 15.6933C97.9746 15.5485 97.9354 15.4149 97.8625 15.298C97.7897 15.181 97.6608 15.0697 97.4759 14.9695C97.291 14.8693 97.1174 14.7857 96.9549 14.7078C96.7924 14.6354 96.5459 14.5575 96.2265 14.4739C95.9072 14.3904 95.6494 14.3348 95.4589 14.2958C95.2684 14.2624 94.9659 14.1956 94.5513 14.1065C94.1367 14.0174 93.8397 13.9506 93.6604 13.9172C90.7694 13.2992 89.3182 11.8905 89.3182 9.68572C89.3182 8.52207 89.8449 7.52545 90.8982 6.69586C91.9516 5.86627 93.3915 5.45426 95.2236 5.45426C97.6776 5.45426 99.5154 6.21147 100.742 7.72032C101.275 8.37731 101.628 9.12338 101.813 9.95854H97.969C97.8401 9.68572 97.6776 9.45744 97.4759 9.27371C96.91 8.81715 96.1593 8.58888 95.2236 8.58888C94.5625 8.58888 94.0806 8.69466 93.7669 8.90067C93.4531 9.11224 93.3018 9.36836 93.3018 9.68015C93.3018 9.7915 93.3242 9.89172 93.3691 9.99194C93.4139 10.0922 93.4923 10.1812 93.6044 10.2648C93.7165 10.3483 93.8229 10.4207 93.935 10.4819C94.047 10.5431 94.1983 10.61 94.4 10.6712C94.6017 10.738 94.781 10.7937 94.9379 10.8494C95.0947 10.905 95.2964 10.9607 95.5542 11.0108C95.8119 11.0665 96.0304 11.1111 96.2153 11.15C96.4002 11.189 96.6355 11.2391 96.9269 11.3004C97.2182 11.3672 97.4591 11.4117 97.6384 11.4507C100.513 12.0854 101.953 13.4996 101.953 15.6821C101.953 16.9015 101.387 17.9593 100.249 18.8502C99.112 19.741 97.5768 20.1864 95.6382 20.1864C93.0385 20.1864 91.1167 19.368 89.8729 17.7311C89.307 16.985 88.8924 16.1665 88.6347 15.2757V15.2813Z" fill="white"/>
    <path d="M103.601 24.9699V5.86705H107.444V7.64315H107.584C107.876 7.25898 108.234 6.89708 108.654 6.55188C109.64 5.82251 110.75 5.46061 111.977 5.46061C113.809 5.46061 115.339 6.13987 116.577 7.49282C117.815 8.84577 118.431 10.6274 118.431 12.8267C118.431 15.0259 117.815 16.8076 116.577 18.1606C115.339 19.5135 113.809 20.1928 111.977 20.1928C110.75 20.1928 109.64 19.8309 108.654 19.1015C108.234 18.7563 107.876 18.3944 107.584 18.0102H107.444V24.9699H103.601ZM108.436 9.80899C107.775 10.5272 107.45 11.535 107.45 12.8267C107.45 14.1184 107.78 15.1261 108.436 15.8444C109.097 16.5626 109.954 16.9245 111.019 16.9245C112.027 16.9245 112.851 16.5626 113.49 15.8333C114.128 15.1039 114.453 14.1073 114.453 12.8323C114.453 11.5572 114.134 10.5606 113.49 9.83126C112.851 9.10189 112.022 8.73999 111.019 8.73999C109.954 8.73999 109.097 9.10189 108.436 9.82012V9.80899Z" fill="white"/>
    <path d="M120.587 3.47816C120.156 3.06615 119.943 2.59289 119.943 2.04726C119.943 1.50162 120.156 1.0228 120.587 0.616355C121.019 0.209912 121.534 0.00390625 122.139 0.00390625C122.744 0.00390625 123.26 0.209912 123.691 0.616355C124.122 1.0228 124.335 1.50162 124.335 2.04726C124.335 2.59289 124.122 3.07172 123.691 3.47816C123.26 3.8846 122.744 4.09061 122.139 4.09061C121.534 4.09061 121.019 3.8846 120.587 3.47816ZM120.217 19.786V5.86671H124.061V19.786H120.217Z" fill="white"/>
    <path d="M126.532 19.7855V5.86627H130.376V7.77599H130.516C130.751 7.35841 131.093 6.97424 131.53 6.62904C132.539 5.84957 133.665 5.45426 134.909 5.45426C136.646 5.45426 137.996 5.95535 138.96 6.95754C139.923 7.95973 140.399 9.4129 140.399 11.3226V19.7855H136.556V11.8683C136.556 10.8494 136.304 10.0699 135.8 9.53539C135.295 9.00089 134.584 8.72807 133.67 8.72807C132.757 8.72807 131.978 9.07327 131.334 9.76367C130.695 10.4541 130.37 11.3393 130.37 12.4083V19.78H126.527L126.532 19.7855Z" fill="white"/>
    <path d="M11 26C4.93143 26 0 21.0686 0 15H3.92C3.92 18.9029 7.09714 22.08 11 22.08C14.9029 22.08 18.08 18.9029 18.08 15H22C22 21.0629 17.0686 26 11 26Z" fill="#0AF522"/>
    <path d="M12.92 15H9C9 9.48831 13.9314 5 20 5V8.56364C16.0971 8.56364 12.92 11.4519 12.92 15Z" fill="#0AF522"/>
    <path d="M2 13C3.10457 13 4 12.1046 4 11C4 9.89543 3.10457 9 2 9C0.89543 9 0 9.89543 0 11C0 12.1046 0.89543 13 2 13Z" fill="#FFDD37"/>
</svg>