<svg width="83" height="32" viewBox="0 0 83 32" fill="none" xmlns="http://www.w3.org/2000/svg">
<path d="M31.221 8.63081H34.6662C34.7777 8.91931 34.9521 9.18337 35.1895 9.42298C35.6935 9.93643 36.3912 10.1907 37.278 10.1907C38.6251 10.1907 39.2986 9.78973 39.2986 8.99266C39.2986 8.86553 39.2647 8.74817 39.2017 8.64548C39.1387 8.54279 39.0272 8.44499 38.8673 8.35697C38.7074 8.26895 38.5572 8.1956 38.4167 8.12714C38.2762 8.06357 38.063 7.99511 37.7868 7.92176C37.5106 7.84841 37.2877 7.79951 37.1229 7.76528C36.9582 7.73594 36.6965 7.67726 36.3379 7.59902C35.9794 7.52078 35.7226 7.4621 35.5675 7.43276C33.0672 6.88998 31.8122 5.65281 31.8122 3.71638C31.8122 2.69438 32.2677 1.81907 33.1786 1.09046C34.0896 0.361858 35.3349 0 36.9194 0C39.0418 0 40.6311 0.665037 41.6923 1.99022C42.1526 2.56724 42.4579 3.22249 42.6178 3.95599H39.2937C39.1823 3.71638 39.0418 3.51589 38.8673 3.35452C38.3779 2.95355 37.7286 2.75306 36.9194 2.75306C36.3476 2.75306 35.9309 2.84597 35.6596 3.02689C35.3882 3.21271 35.2574 3.43765 35.2574 3.71149C35.2574 3.80929 35.2768 3.89731 35.3155 3.98533C35.3543 4.07335 35.4221 4.15159 35.519 4.22494C35.616 4.29829 35.708 4.36186 35.8049 4.41565C35.9018 4.46944 36.0327 4.52812 36.2071 4.58191C36.3816 4.64059 36.5366 4.68949 36.6723 4.73839C36.808 4.78729 36.9824 4.83619 37.2053 4.8802C37.4282 4.92909 37.6172 4.96821 37.7771 5.00244C37.937 5.03667 38.1405 5.08068 38.3925 5.13447C38.6444 5.19315 38.8528 5.23227 39.0079 5.2665C41.4936 5.82396 42.739 7.06601 42.739 8.98288C42.739 10.0538 42.2496 10.9829 41.2659 11.7653C40.2822 12.5477 38.9546 12.9389 37.278 12.9389C35.0296 12.9389 33.3676 12.22 32.2919 10.7824C31.8025 10.1271 31.4439 9.40831 31.221 8.62592V8.63081Z" fill="white"/>
<path d="M45.1763 11.1589C44.1054 9.97066 43.5724 8.40587 43.5724 6.47433C43.5724 4.54279 44.1054 2.97799 45.1763 1.78973C46.2472 0.601467 47.57 0.00488997 49.1545 0.00488997C50.2157 0.00488997 51.1751 0.322738 52.0279 0.963325C52.3914 1.2665 52.7015 1.58435 52.9535 1.92176H53.0746V0.361858H56.3987V12.5868H53.0746V11.0269H52.9535C52.7015 11.3643 52.3914 11.6822 52.0279 11.9853C51.1751 12.6259 50.2157 12.9438 49.1545 12.9438C47.57 12.9438 46.2472 12.3472 45.1763 11.1589ZM47.8462 3.83374C47.2938 4.47433 47.0128 5.34963 47.0128 6.46944C47.0128 7.58924 47.289 8.46944 47.8462 9.10513C48.3986 9.74572 49.1109 10.0636 49.9831 10.0636C50.8989 10.0636 51.6451 9.74572 52.2169 9.11491C52.7887 8.48411 53.0697 7.59902 53.0697 6.46455C53.0697 5.33007 52.7839 4.44988 52.2169 3.81418C51.6451 3.18337 50.9038 2.86553 49.9831 2.86553C49.0625 2.86553 48.3986 3.18337 47.8462 3.82396V3.83374Z" fill="white"/>
<path d="M57.4647 0.361858H60.9099L63.1679 9.71149H64.4762L66.7343 0.361858H70.1795L66.9717 12.5868H60.6773L57.4647 0.361858Z" fill="white"/>
<path d="M71.7785 11.1589C70.7077 9.97066 70.1747 8.40587 70.1747 6.47433C70.1747 4.54279 70.7077 2.97799 71.7785 1.78973C72.8494 0.601467 74.1723 0.00488997 75.7568 0.00488997C76.818 0.00488997 77.7774 0.322738 78.6302 0.963325C78.9936 1.2665 79.3037 1.58435 79.5557 1.92176H79.6768V0.361858H83.0009V12.5868H79.6768V11.0269H79.5557C79.3037 11.3643 78.9936 11.6822 78.6302 11.9853C77.7774 12.6259 76.818 12.9438 75.7568 12.9438C74.1723 12.9438 72.8494 12.3472 71.7785 11.1589ZM74.4485 3.83374C73.8961 4.47433 73.615 5.34963 73.615 6.46944C73.615 7.58924 73.8912 8.46944 74.4485 9.10513C75.0009 9.74572 75.7132 10.0636 76.5854 10.0636C77.5012 10.0636 78.2474 9.74572 78.8192 9.11491C79.391 8.48411 79.672 7.59902 79.672 6.46455C79.672 5.33007 79.3861 4.44988 78.8192 3.81418C78.2474 3.18337 77.506 2.86553 76.5854 2.86553C75.6647 2.86553 75.0009 3.18337 74.4485 3.82396V3.83374Z" fill="white"/>
<path d="M30.625 23.4914H34.0702C34.1817 23.78 34.3561 24.044 34.5935 24.2836C35.0975 24.7971 35.7952 25.0513 36.682 25.0513C38.029 25.0513 38.7026 24.6504 38.7026 23.8533C38.7026 23.7262 38.6687 23.6088 38.6057 23.5061C38.5427 23.4034 38.4312 23.3056 38.2713 23.2176C38.1114 23.1296 37.9612 23.0562 37.8207 22.9878C37.6802 22.9242 37.467 22.8557 37.1908 22.7824C36.9146 22.709 36.6917 22.6601 36.5269 22.6259C36.3622 22.5966 36.1005 22.5379 35.7419 22.4597C35.3834 22.3814 35.1265 22.3227 34.9715 22.2934C32.4712 21.7506 31.2162 20.5134 31.2162 18.577C31.2162 17.555 31.6716 16.6797 32.5826 15.9511C33.4936 15.2225 34.7389 14.8606 36.3234 14.8606C38.4458 14.8606 40.0351 15.5257 41.0963 16.8509C41.5566 17.4279 41.8619 18.0831 42.0218 18.8166H38.6977C38.5863 18.577 38.4458 18.3765 38.2713 18.2152C37.7819 17.8142 37.1326 17.6137 36.3234 17.6137C35.7516 17.6137 35.3349 17.7066 35.0636 17.8875C34.7922 18.0734 34.6614 18.2983 34.6614 18.5721C34.6614 18.6699 34.6808 18.7579 34.7195 18.846C34.7583 18.934 34.8261 19.0122 34.923 19.0856C35.0199 19.1589 35.112 19.2225 35.2089 19.2763C35.3058 19.3301 35.4367 19.3888 35.6111 19.4425C35.7855 19.5012 35.9406 19.5501 36.0763 19.599C36.212 19.6479 36.3864 19.6968 36.6093 19.7408C36.8322 19.7897 37.0212 19.8288 37.1811 19.8631C37.341 19.8973 37.5445 19.9413 37.7965 19.9951C38.0484 20.0538 38.2568 20.0929 38.4119 20.1271C40.8976 20.6846 42.143 21.9266 42.143 23.8435C42.143 24.9144 41.6535 25.8435 40.6699 26.6259C39.6862 27.4083 38.3585 27.7995 36.682 27.7995C34.4336 27.7995 32.7716 27.0807 31.6959 25.643C31.2065 24.9878 30.8479 24.2689 30.625 23.4866V23.4914Z" fill="white"/>
<path d="M43.5724 32V15.2225H46.8965V16.7824H47.0176C47.2696 16.445 47.5797 16.1271 47.9431 15.824C48.7959 15.1834 49.7554 14.8655 50.8166 14.8655C52.4011 14.8655 53.7239 15.4621 54.7948 16.6504C55.8656 17.8386 56.3987 19.4034 56.3987 21.335C56.3987 23.2665 55.8656 24.8313 54.7948 26.0196C53.7239 27.2078 52.4011 27.8044 50.8166 27.8044C49.7554 27.8044 48.7959 27.4866 47.9431 26.846C47.5797 26.5428 47.2696 26.2249 47.0176 25.8875H46.8965V32H43.5724ZM47.7541 18.6846C47.1824 19.3154 46.9013 20.2005 46.9013 21.335C46.9013 22.4694 47.1872 23.3545 47.7541 23.9853C48.3259 24.6161 49.0673 24.934 49.988 24.934C50.8602 24.934 51.5725 24.6161 52.1249 23.9755C52.6773 23.335 52.9583 22.4597 52.9583 21.3399C52.9583 20.22 52.6821 19.3447 52.1249 18.7042C51.5725 18.0636 50.8553 17.7457 49.988 17.7457C49.0673 17.7457 48.3259 18.0636 47.7541 18.6944V18.6846Z" fill="white"/>
<path d="M61.2636 15.2225H57.9396V27.4474H61.2636V15.2225Z" fill="white"/>
<path d="M63.4054 27.4474V15.2225H66.7294V16.8998H66.8506C67.0541 16.533 67.3497 16.1956 67.7276 15.8924C68.5998 15.2078 69.5738 14.8606 70.6495 14.8606C72.1517 14.8606 73.3194 15.3007 74.1529 16.1809C74.9863 17.0611 75.3982 18.3374 75.3982 20.0147V27.4474H72.0741V20.4939C72.0741 19.599 71.8561 18.9144 71.42 18.445C70.9839 17.9755 70.3685 17.7359 69.5786 17.7359C68.7888 17.7359 68.1153 18.0391 67.558 18.6455C67.0056 19.2518 66.7246 20.0293 66.7246 20.9682V27.4425H63.4005L63.4054 27.4474Z" fill="white"/>
<path d="M13.7299 27.4474C6.33071 27.4474 0.3125 21.3692 0.3125 13.9022H5.09509C5.09509 18.709 8.97156 22.6161 13.7299 22.6161C18.4883 22.6161 22.3647 18.709 22.3647 13.9022H27.1473C27.1473 21.3692 21.1291 27.4474 13.7299 27.4474Z" fill="#0AF522"/>
<path d="M16.1236 13.9022H11.341C11.341 6.43517 17.3593 0.361816 24.7585 0.361816V5.18822C19.9953 5.18822 16.1236 9.09531 16.1236 13.9022Z" fill="#0AF522"/>
<path d="M2.70384 11.1735C4.19712 11.1735 5.40767 9.95188 5.40767 8.44492C5.40767 6.93795 4.19712 5.71631 2.70384 5.71631C1.21055 5.71631 0 6.93795 0 8.44492C0 9.95188 1.21055 11.1735 2.70384 11.1735Z" fill="#FFDD37"/>
</svg>
